# xmcd CD database file
#
# Track frame offsets:
#	150
#	21792
#	42006
#	59845
#	80252
#	109011
#	135302
#	162341
#	181904
#	207382
#	227952
#	249888
#
# Disc length: 3641 seconds
#
# Revision: 0
# Processed by: cddbd v1.5.2PL0 Copyright (c) Steve Scherf et al.
# Submitted via: CDex 1.51
#
DISCID=980e370c
DTITLE=B.B.KING - Live
DYEAR=1900
DGENRE=Blues
TTITLE0=Mr King Comes On Stage
TTITLE1=B.B.KING - Why I Sing The Blues
TTITLE2=B.B.KING - I Need You So
TTITLE3=B.B.KING - Bad Case Of Love
TTITLE4=B.B.KING - Bluesman
TTITLE5=B.B.KING - When Love Comes To Town
TTITLE6=B.B.KING - All Over Again
TTITLE7=B.B.KING - You Are My Sunshine
TTITLE8=B.B.KING - Rock Me Baby
TTITLE9=B.B.KING - Key To The Highway
TTITLE10=B.B.KING - The Thrill Is Gone
TTITLE11=B.B.KING - When The Saints Go Marching In
EXTD=
EXTT0=
EXTT1=
EXTT2=
EXTT3=
EXTT4=
EXTT5=
EXTT6=
EXTT7=
EXTT8=
EXTT9=
EXTT10=
EXTT11=
PLAYORDER=
